<svg width="192" height="192" viewBox="0 0 192 192" xmlns="http://www.w3.org/2000/svg">
  <!-- Background -->
  <rect width="192" height="192" fill="#3b82f6" rx="24"/>
  
  <!-- Treasure chest/box icon -->
  <g transform="translate(48, 48)">
    <!-- Box base -->
    <rect x="12" y="48" width="72" height="48" fill="#8b5cf6" stroke="#ffffff" stroke-width="3" rx="4"/>
    
    <!-- Box lid -->
    <ellipse cx="48" cy="48" rx="36" ry="12" fill="#a855f7" stroke="#ffffff" stroke-width="3"/>
    
    <!-- Keyhole -->
    <circle cx="48" cy="60" r="6" fill="#ffffff"/>
    <rect x="45" y="60" width="6" height="12" fill="#ffffff" rx="3"/>
    
    <!-- Sparkles -->
    <g fill="#fbbf24">
      <circle cx="24" cy="30" r="3"/>
      <circle cx="72" cy="24" r="2"/>
      <circle cx="84" cy="72" r="2"/>
      <circle cx="12" cy="84" r="3"/>
    </g>
    
    <!-- Map pin overlay -->
    <g transform="translate(24, 12)">
      <path d="M24 0c-8.284 0-15 6.716-15 15 0 8.284 12 24 15 24s15-15.716 15-24c0-8.284-6.716-15-15-15z" fill="#ef4444" stroke="#ffffff" stroke-width="2"/>
      <circle cx="24" cy="15" r="6" fill="#ffffff"/>
    </g>
  </g>
</svg>
